<?xml version="1.0" encoding="utf-8"?>
<!-- Generator: $$$/GeneralStr/196=Adobe Illustrator 27.6.0, SVG Export Plug-In . SVG Version: 6.00 Build 0)  -->
<svg version="1.1" xmlns="http://www.w3.org/2000/svg" xmlns:xlink="http://www.w3.org/1999/xlink" x="0px" y="0px"
	 viewBox="0 0 141.73 141.73" style="enable-background:new 0 0 141.73 141.73;" xml:space="preserve">
<style type="text/css">
	.st0{fill:none;stroke:#1D1D1B;stroke-width:2;stroke-miterlimit:10;}
	.st1{display:none;fill:none;stroke:#B2B2B2;stroke-width:0.8459;stroke-miterlimit:10;}
	.st2{fill:none;stroke:#1D1D1B;stroke-width:0.9594;stroke-miterlimit:10;}
</style>
<g id="Laag_1">
	<path class="st0" d="M69.55,34.8c1.21-0.13,2.44-0.2,3.69-0.2c18.94,0,34.3,15.35,34.3,34.3s-15.35,34.3-34.3,34.3
		c-1.25,0-2.48-0.07-3.7-0.2"/>
	<path class="st0" d="M65.17,102.23C50.12,98.6,38.95,85.05,38.95,68.89c0-16.15,11.16-29.69,26.19-33.33"/>
	<circle class="st1" cx="73.24" cy="68.89" r="29.01"/>
	<line class="st0" x1="70.05" y1="53.69" x2="70.05" y2="98.2"/>
	<path class="st0" d="M65.14,103.09"/>
	<path class="st2" d="M65.14,34.07"/>
	<path class="st0" d="M79.25,101.97"/>
	<path class="st2" d="M79.25,35.76"/>
	<line class="st0" x1="70.45" y1="79.64" x2="85.73" y2="94.92"/>
	<circle class="st0" cx="83.21" cy="66.06" r="17.97"/>
</g>
<g id="Laag_2">
</g>
</svg>
